<?xml version="1.0" encoding="utf-8"?>
<!-- Generator: Moho 14.1 build 20231027 -->
<!DOCTYPE svg PUBLIC "-//W3C//DTD SVG 1.1//EN" "http://www.w3.org/Graphics/SVG/1.1/DTD/svg11.dtd">
<svg version="1.1" id="Frame_0" xmlns="http://www.w3.org/2000/svg" xmlns:xlink="http://www.w3.org/1999/xlink" width="20px" height="20px">
<g id="Layer_8">
<path id="S2" fill="#e3772e" fill-rule="evenodd" stroke="none" d="M 19.742 7.452 C 19.741 7.452 18.326 5.428 14.933 3.491 C 13.790 2.838 12.709 2.448 11.348 2.238 C 8.375 1.781 4.582 6.004 4.831 10.440 C 5.013 13.684 6.061 16.251 8.060 17.621 C 9.327 18.152 12.547 18.495 12.672 18.497 C 16.415 18.569 17.956 18.088 17.956 18.088 C 17.956 18.087 19.742 7.453 19.742 7.452 Z"/>
<path fill="#000000" d="M 19.742 7.452 C 19.741 7.452 18.022 5.797 14.696 3.906 L 15.170 3.075 C 18.630 5.059 19.741 7.452 19.742 7.452 L 19.742 7.452 Z"/>
<path fill="#000000" d="M 14.696 3.906 C 13.587 3.271 12.522 3.209 11.229 3.013 L 11.468 1.464 C 12.895 1.687 13.993 2.405 15.170 3.075 L 14.696 3.906 Z"/>
<path fill="none" stroke="#000000" stroke-width="1" stroke-linecap="butt" stroke-linejoin="round" d="M 14.696 3.906 L 15.170 3.075 "/>
<path fill="#000000" d="M 11.229 3.013 C 8.756 2.465 5.185 6.251 5.481 10.403 L 4.180 10.476 C 3.979 5.758 7.994 1.096 11.468 1.464 L 11.229 3.013 Z"/>
<path fill="none" stroke="#000000" stroke-width="1" stroke-linecap="butt" stroke-linejoin="round" d="M 11.229 3.013 L 11.468 1.464 "/>
<path fill="#000000" d="M 5.481 10.403 C 5.650 13.549 6.492 15.917 8.369 17.171 L 7.752 18.072 C 5.629 16.585 4.375 13.819 4.180 10.476 L 5.481 10.403 Z"/>
<path fill="none" stroke="#000000" stroke-width="1" stroke-linecap="butt" stroke-linejoin="round" d="M 5.481 10.403 L 4.180 10.476 "/>
<path fill="#000000" d="M 8.272 17.118 C 9.431 17.616 12.587 18.105 12.680 18.105 L 12.665 18.889 C 12.506 18.884 9.222 18.688 7.849 18.125 L 8.272 17.118 Z"/>
<path fill="none" stroke="#000000" stroke-width="1" stroke-linecap="butt" stroke-linejoin="round" d="M 8.272 17.118 L 7.849 18.125 "/>
<path fill="#000000" d="M 12.680 18.105 C 16.384 18.178 17.956 18.088 17.956 18.088 L 17.956 18.088 C 17.956 18.088 16.445 18.959 12.665 18.889 L 12.680 18.105 Z"/>
<path fill="none" stroke="#000000" stroke-width="1" stroke-linecap="butt" stroke-linejoin="round" d="M 12.680 18.105 L 12.665 18.889 "/>
<path fill="#000000" d="M 11.165 3.000 C 8.977 2.469 2.166 1.339 1.298 7.068 L 0.431 6.915 C 1.688 0.599 9.186 0.916 11.532 1.476 L 11.165 3.000 Z"/>
<path fill="#000000" d="M 1.298 7.068 C -0.185 15.156 4.040 15.326 8.274 17.119 L 7.847 18.124 C 3.757 16.381 -1.018 15.441 0.431 6.915 L 1.298 7.068 Z"/>
<path fill="none" stroke="#000000" stroke-width="1" stroke-linecap="butt" stroke-linejoin="round" d="M 1.298 7.068 L 0.431 6.915 "/>
<path fill="#000000" d="M 8.272 17.118 C 9.431 17.616 12.587 18.105 12.680 18.105 L 12.665 18.889 C 12.506 18.884 9.222 18.688 7.849 18.125 L 8.272 17.118 Z"/>
<path fill="none" stroke="#000000" stroke-width="1" stroke-linecap="butt" stroke-linejoin="round" d="M 8.272 17.118 L 7.849 18.125 "/>
<path fill="#000000" d="M 12.680 18.105 C 16.384 18.178 17.956 18.088 17.956 18.088 L 17.956 18.088 C 17.956 18.088 16.445 18.959 12.665 18.889 L 12.680 18.105 Z"/>
<path fill="none" stroke="#000000" stroke-width="1" stroke-linecap="butt" stroke-linejoin="round" d="M 12.680 18.105 L 12.665 18.889 "/>
<path fill="#000000" d="M 19.742 7.452 C 19.741 7.452 18.022 5.797 14.696 3.906 L 15.170 3.075 C 18.630 5.059 19.741 7.452 19.742 7.452 L 19.742 7.452 Z"/>
<path fill="none" stroke="#000000" stroke-width="1" stroke-linecap="butt" stroke-linejoin="round" d="M 19.742 7.452 L 19.742 7.452 "/>
<path fill="#000000" d="M 14.696 3.906 C 13.587 3.271 12.522 3.209 11.229 3.013 L 11.468 1.464 C 12.895 1.687 13.993 2.405 15.170 3.075 L 14.696 3.906 Z"/>
<path fill="none" stroke="#000000" stroke-width="1" stroke-linecap="butt" stroke-linejoin="round" d="M 14.696 3.906 L 15.170 3.075 "/>
<path fill="#000000" d="M 11.229 3.013 C 8.756 2.465 5.185 6.251 5.481 10.403 L 4.180 10.476 C 3.979 5.758 7.994 1.096 11.468 1.464 L 11.229 3.013 Z"/>
<path fill="none" stroke="#000000" stroke-width="1" stroke-linecap="butt" stroke-linejoin="round" d="M 11.229 3.013 L 11.468 1.464 "/>
<path fill="#000000" d="M 5.481 10.403 C 5.650 13.549 6.492 15.917 8.369 17.171 L 7.752 18.072 C 5.629 16.585 4.375 13.819 4.180 10.476 L 5.481 10.403 Z"/>
<path fill="none" stroke="#000000" stroke-width="1" stroke-linecap="butt" stroke-linejoin="round" d="M 5.481 10.403 L 4.180 10.476 "/>
<path fill="none" stroke="#000000" stroke-width="1" stroke-linecap="butt" stroke-linejoin="round" d="M 8.060 17.621 C 6.061 16.251 5.013 13.684 4.831 10.440 "/>
<path fill="none" stroke="#000000" stroke-width="1" stroke-linecap="butt" stroke-linejoin="round" d="M 4.831 10.440 C 4.582 6.004 8.375 1.781 11.348 2.238 "/>
<path id="S3" fill="#000000" fill-rule="evenodd" stroke="none" d="M 0.864 6.992 C -0.601 15.299 3.898 15.853 8.060 17.621 C 6.061 16.251 5.013 13.684 4.831 10.440 C 4.582 6.004 8.375 1.781 11.348 2.238 C 9.082 1.692 1.927 0.969 0.864 6.992 Z"/>
<path fill="#000000" d="M 1.298 7.068 C -0.185 15.156 4.040 15.326 8.274 17.119 L 7.847 18.124 C 3.757 16.381 -1.018 15.441 0.431 6.915 L 1.298 7.068 Z"/>
<path fill="#000000" d="M 7.692 18.159 C 5.545 16.650 4.479 13.797 4.286 10.470 L 5.376 10.409 C 5.547 13.571 6.576 15.852 8.429 17.084 L 7.692 18.159 Z"/>
<path fill="none" stroke="#000000" stroke-width="1" stroke-linecap="butt" stroke-linejoin="round" d="M 7.692 18.159 L 8.429 17.084 "/>
<path fill="#000000" d="M 4.048 10.484 C 3.857 5.707 8.058 1.211 11.447 1.594 L 11.249 2.882 C 8.692 2.350 5.307 6.301 5.613 10.396 L 4.048 10.484 Z"/>
<path fill="none" stroke="#000000" stroke-width="1" stroke-linecap="butt" stroke-linejoin="round" d="M 4.048 10.484 L 5.613 10.396 "/>
<path fill="#000000" d="M 11.165 3.000 C 8.977 2.469 2.166 1.339 1.298 7.068 L 0.431 6.915 C 1.688 0.599 9.186 0.916 11.532 1.476 L 11.165 3.000 Z"/>
<path fill="none" stroke="#000000" stroke-width="1" stroke-linecap="butt" stroke-linejoin="round" d="M 11.165 3.000 L 11.532 1.476 "/>
</g>
</svg>
