<?xml version="1.0" encoding="utf-8"?>
<!-- Generator: Moho 14.1 build 20231027 -->
<!DOCTYPE svg PUBLIC "-//W3C//DTD SVG 1.1//EN" "http://www.w3.org/Graphics/SVG/1.1/DTD/svg11.dtd">
<svg version="1.1" id="Frame_0" xmlns="http://www.w3.org/2000/svg" xmlns:xlink="http://www.w3.org/1999/xlink" width="20px" height="20px">
<g id="Layer_8">
<path fill="#000000" d="M 8.823 8.548 C 12.759 7.187 19.806 7.221 19.806 7.221 L 19.806 7.221 C 19.806 7.221 12.890 8.012 9.097 9.337 L 8.823 8.548 Z"/>
<path fill="#000000" d="M 19.806 7.221 C 19.805 7.221 18.105 12.766 13.997 15.193 L 13.685 14.659 C 17.617 12.388 19.805 7.221 19.806 7.221 L 19.806 7.221 Z"/>
<path fill="none" stroke="#000000" stroke-width="1" stroke-linecap="butt" stroke-linejoin="round" d="M 19.806 7.221 L 19.806 7.221 "/>
<path fill="#000000" d="M 13.997 15.193 C 12.038 16.334 8.020 18.603 4.534 16.581 L 6.067 14.151 C 8.314 15.744 11.810 15.759 13.685 14.659 L 13.997 15.193 Z"/>
<path fill="none" stroke="#000000" stroke-width="1" stroke-linecap="butt" stroke-linejoin="round" d="M 13.997 15.193 L 13.685 14.659 "/>
<path fill="#000000" d="M 4.534 16.581 C 0.807 13.334 5.446 9.737 8.823 8.548 L 9.097 9.337 C 5.910 10.431 3.673 13.538 6.067 14.151 L 4.534 16.581 Z"/>
<path fill="none" stroke="#000000" stroke-width="1" stroke-linecap="butt" stroke-linejoin="round" d="M 4.534 16.581 L 6.067 14.151 "/>
<path id="S4" fill="#e3772e" fill-rule="evenodd" stroke="none" d="M 19.806 7.221 C 19.805 7.221 17.861 12.577 13.841 14.926 C 11.924 16.046 8.167 17.174 5.300 15.366 C 2.240 13.436 5.678 10.084 8.960 8.943 C 12.824 7.599 19.806 7.221 19.806 7.221 Z"/>
<path fill="#000000" d="M 19.806 7.221 C 19.805 7.221 18.105 12.766 13.997 15.193 L 13.685 14.659 C 17.617 12.388 19.805 7.221 19.806 7.221 L 19.806 7.221 Z"/>
<path fill="#000000" d="M 13.997 15.193 C 12.038 16.334 8.020 18.603 4.534 16.581 L 6.067 14.151 C 8.314 15.744 11.810 15.759 13.685 14.659 L 13.997 15.193 Z"/>
<path fill="none" stroke="#000000" stroke-width="1" stroke-linecap="butt" stroke-linejoin="round" d="M 13.997 15.193 L 13.685 14.659 "/>
<path fill="#000000" d="M 4.534 16.581 C 0.807 13.334 5.446 9.737 8.823 8.548 L 9.097 9.337 C 5.910 10.431 3.673 13.538 6.067 14.151 L 4.534 16.581 Z"/>
<path fill="none" stroke="#000000" stroke-width="1" stroke-linecap="butt" stroke-linejoin="round" d="M 4.534 16.581 L 6.067 14.151 "/>
<path fill="#000000" d="M 8.823 8.548 C 12.759 7.187 19.806 7.221 19.806 7.221 L 19.806 7.221 C 19.806 7.221 12.890 8.012 9.097 9.337 L 8.823 8.548 Z"/>
<path fill="none" stroke="#000000" stroke-width="1" stroke-linecap="butt" stroke-linejoin="round" d="M 8.823 8.548 L 9.097 9.337 "/>
<path id="S5" fill="#e3772e" fill-rule="evenodd" stroke="none" d="M 19.131 7.634 C 19.130 7.634 13.394 10.591 9.209 11.290 C 6.685 11.712 2.059 12.238 1.390 10.936 C 0.776 9.743 2.033 8.651 2.789 8.318 C 5.874 6.958 19.131 7.634 19.131 7.634 Z"/>
<path fill="#000000" d="M 19.131 7.634 C 19.130 7.634 13.509 10.905 9.264 11.620 L 9.154 10.961 C 13.278 10.278 19.130 7.634 19.131 7.634 L 19.131 7.634 Z"/>
<path fill="#000000" d="M 9.264 11.620 C 6.729 12.043 1.892 13.379 0.364 11.463 L 2.415 10.409 C 2.227 11.098 6.642 11.381 9.154 10.961 L 9.264 11.620 Z"/>
<path fill="none" stroke="#000000" stroke-width="1" stroke-linecap="butt" stroke-linejoin="round" d="M 9.264 11.620 L 9.154 10.961 "/>
<path fill="#000000" d="M 0.364 11.463 C -0.333 9.430 2.033 8.651 2.789 8.318 L 2.789 8.318 C 2.033 8.651 1.886 10.055 2.415 10.409 L 0.364 11.463 Z"/>
<path fill="none" stroke="#000000" stroke-width="1" stroke-linecap="butt" stroke-linejoin="round" d="M 0.364 11.463 L 2.415 10.409 "/>
<path fill="#000000" d="M 2.789 8.318 C 5.874 6.958 19.131 7.634 19.131 7.634 L 19.131 7.634 C 19.131 7.634 5.874 6.958 2.789 8.318 L 2.789 8.318 Z"/>
<path fill="none" stroke="#000000" stroke-width="1" stroke-linecap="butt" stroke-linejoin="round" d="M 2.789 8.318 L 2.789 8.318 "/>
</g>
</svg>
