<?xml version="1.0" encoding="utf-8"?>
<!-- Generator: Moho 14.1 build 20231027 -->
<!DOCTYPE svg PUBLIC "-//W3C//DTD SVG 1.1//EN" "http://www.w3.org/Graphics/SVG/1.1/DTD/svg11.dtd">
<svg version="1.1" id="Frame_0" xmlns="http://www.w3.org/2000/svg" xmlns:xlink="http://www.w3.org/1999/xlink" width="100px" height="100px">
<g id="Layer_8">
<g id="Fin_Upper">
<path fill="#000000" d="M 52.026 31.550 C 53.278 32.908 69.527 30.534 69.585 30.531 L 69.593 30.676 C 69.548 30.678 53.289 33.102 51.886 31.685 L 52.026 31.550 Z"/>
<path fill="#000000" d="M 69.542 30.659 C 69.409 30.546 66.262 27.759 64.584 26.320 L 65.180 25.626 C 66.905 27.109 69.514 30.446 69.636 30.548 L 69.542 30.659 Z"/>
<path fill="none" stroke="#000000" stroke-width="1" stroke-linecap="butt" stroke-linejoin="round" d="M 69.542 30.659 L 69.636 30.548 "/>
<path fill="#000000" d="M 64.584 26.320 C 63.469 25.362 60.059 23.218 55.376 25.806 L 54.567 24.278 C 60.050 21.489 64.018 24.631 65.180 25.626 L 64.584 26.320 Z"/>
<path fill="none" stroke="#000000" stroke-width="1" stroke-linecap="butt" stroke-linejoin="round" d="M 64.584 26.320 L 65.180 25.626 "/>
<path fill="#000000" d="M 55.376 25.806 C 53.243 26.934 49.000 28.442 52.026 31.550 L 51.886 31.685 C 48.808 28.412 52.400 25.424 54.567 24.278 L 55.376 25.806 Z"/>
<path fill="none" stroke="#000000" stroke-width="1" stroke-linecap="butt" stroke-linejoin="round" d="M 55.376 25.806 L 54.567 24.278 "/>
<path id="S2" fill="#e3772e" fill-rule="evenodd" stroke="none" d="M 69.589 30.603 C 69.461 30.496 66.584 27.434 64.882 25.973 C 63.743 24.997 60.054 22.354 54.971 25.042 C 52.822 26.179 48.904 28.427 51.956 31.618 C 53.284 33.005 69.537 30.606 69.589 30.603 Z"/>
<path fill="#000000" d="M 69.542 30.659 C 69.409 30.546 66.262 27.759 64.584 26.320 L 65.180 25.626 C 66.905 27.109 69.514 30.446 69.636 30.548 L 69.542 30.659 Z"/>
<path fill="#000000" d="M 64.584 26.320 C 63.469 25.362 60.059 23.218 55.376 25.806 L 54.567 24.278 C 60.050 21.489 64.018 24.631 65.180 25.626 L 64.584 26.320 Z"/>
<path fill="none" stroke="#000000" stroke-width="1" stroke-linecap="butt" stroke-linejoin="round" d="M 64.584 26.320 L 65.180 25.626 "/>
<path fill="#000000" d="M 55.376 25.806 C 53.243 26.934 49.000 28.442 52.026 31.550 L 51.886 31.685 C 48.808 28.412 52.400 25.424 54.567 24.278 L 55.376 25.806 Z"/>
<path fill="none" stroke="#000000" stroke-width="1" stroke-linecap="butt" stroke-linejoin="round" d="M 55.376 25.806 L 54.567 24.278 "/>
<path fill="#000000" d="M 52.026 31.550 C 53.278 32.908 69.527 30.534 69.585 30.531 L 69.593 30.676 C 69.548 30.678 53.289 33.102 51.886 31.685 L 52.026 31.550 Z"/>
<path fill="none" stroke="#000000" stroke-width="1" stroke-linecap="butt" stroke-linejoin="round" d="M 52.026 31.550 L 51.886 31.685 "/>
<path fill="#000000" d="M 25.334 45.165 C 25.335 45.163 42.965 34.752 42.965 34.752 L 42.965 34.752 C 42.965 34.752 25.387 45.250 25.385 45.251 L 25.334 45.165 Z"/>
<path fill="#000000" d="M 42.965 34.752 C 42.964 34.754 32.456 30.335 25.771 35.989 L 24.224 34.046 C 32.420 27.851 42.964 34.754 42.965 34.752 L 42.965 34.752 Z"/>
<path fill="none" stroke="#000000" stroke-width="1" stroke-linecap="butt" stroke-linejoin="round" d="M 42.965 34.752 L 42.965 34.752 "/>
<path fill="#000000" d="M 25.771 35.989 C 22.133 38.243 25.402 45.181 25.359 45.157 L 25.359 45.258 C 25.317 45.235 19.650 38.331 24.224 34.046 L 25.771 35.989 Z"/>
<path fill="none" stroke="#000000" stroke-width="1" stroke-linecap="butt" stroke-linejoin="round" d="M 25.771 35.989 L 24.224 34.046 "/>
<path id="S4" fill="#e3772e" fill-rule="evenodd" stroke="none" d="M 42.965 34.752 C 42.964 34.754 32.438 29.093 24.998 35.017 C 20.891 38.287 25.359 45.208 25.359 45.208 C 25.361 45.207 42.965 34.752 42.965 34.752 Z"/>
<path fill="#000000" d="M 42.965 34.752 C 42.964 34.754 32.456 30.335 25.771 35.989 L 24.224 34.046 C 32.420 27.851 42.964 34.754 42.965 34.752 L 42.965 34.752 Z"/>
<path fill="#000000" d="M 25.771 35.989 C 22.133 38.243 25.402 45.181 25.359 45.157 L 25.359 45.258 C 25.317 45.235 19.650 38.331 24.224 34.046 L 25.771 35.989 Z"/>
<path fill="none" stroke="#000000" stroke-width="1" stroke-linecap="butt" stroke-linejoin="round" d="M 25.771 35.989 L 24.224 34.046 "/>
<path fill="#000000" d="M 25.334 45.165 C 25.335 45.163 42.965 34.752 42.965 34.752 L 42.965 34.752 C 42.965 34.752 25.387 45.250 25.385 45.251 L 25.334 45.165 Z"/>
<path fill="none" stroke="#000000" stroke-width="1" stroke-linecap="butt" stroke-linejoin="round" d="M 25.334 45.165 L 25.385 45.251 "/>
</g>
<g id="Fin_Lower">
<path id="S1" fill="#e3772e" fill-rule="evenodd" stroke="none" d="M 46.452 66.489 C 45.287 67.571 35.306 75.154 27.877 69.343 C 24.891 67.007 25.261 61.687 27.664 60.780 C 28.299 60.541 46.452 66.489 46.452 66.489 Z"/>
<path fill="#000000" d="M 46.452 66.489 C 45.287 67.571 35.419 76.263 27.190 70.221 L 28.564 68.465 C 35.193 74.045 45.287 67.571 46.452 66.489 L 46.452 66.489 Z"/>
<path fill="#000000" d="M 27.190 70.221 C 23.836 67.368 25.261 61.687 27.664 60.780 L 27.664 60.780 C 25.261 61.687 25.946 66.647 28.564 68.465 L 27.190 70.221 Z"/>
<path fill="none" stroke="#000000" stroke-width="1" stroke-linecap="butt" stroke-linejoin="round" d="M 27.190 70.221 L 28.564 68.465 "/>
</g>
</g>
</svg>
