<?xml version="1.0" encoding="UTF-8" standalone="no"?>
<!-- Created with Inkscape (http://www.inkscape.org/) -->

<svg
   width="210mm"
   height="297mm"
   viewBox="0 0 210 297"
   version="1.1"
   id="svg1"
   xml:space="preserve"
   inkscape:version="1.3.2 (091e20e, 2023-11-25, custom)"
   xmlns:inkscape="http://www.inkscape.org/namespaces/inkscape"
   xmlns:sodipodi="http://sodipodi.sourceforge.net/DTD/sodipodi-0.dtd"
   xmlns="http://www.w3.org/2000/svg"
   xmlns:svg="http://www.w3.org/2000/svg"><sodipodi:namedview
     id="namedview1"
     pagecolor="#ffffff"
     bordercolor="#999999"
     borderopacity="1"
     inkscape:showpageshadow="2"
     inkscape:pageopacity="0"
     inkscape:pagecheckerboard="0"
     inkscape:deskcolor="#d1d1d1"
     inkscape:document-units="mm"
     inkscape:zoom="2.8970539"
     inkscape:cx="46.944243"
     inkscape:cy="63.167621"
     inkscape:window-width="958"
     inkscape:window-height="1000"
     inkscape:window-x="-7"
     inkscape:window-y="0"
     inkscape:window-maximized="0"
     inkscape:current-layer="layer1" /><defs
     id="defs1"><inkscape:path-effect
       effect="spiro"
       id="path-effect12"
       is_visible="true"
       lpeversion="1" /><inkscape:path-effect
       effect="spiro"
       id="path-effect11"
       is_visible="true"
       lpeversion="1" /><inkscape:path-effect
       effect="spiro"
       id="path-effect10"
       is_visible="true"
       lpeversion="1" /></defs><g
     inkscape:label="Layer 1"
     inkscape:groupmode="layer"
     id="layer1"><path
       style="fill:#db88c9;fill-opacity:1;stroke-width:0.264583"
       d="m 46.610637,19.451431 c -0.475128,-0.465789 -0.821432,-1.05834 -1.012925,-1.695551 -0.191493,-0.63721 -0.229621,-1.317719 -0.130013,-1.975583 0.199217,-1.315727 0.94674,-2.514288 1.947459,-3.391435 1.000719,-0.877147 2.241505,-1.449719 3.526261,-1.796458 1.284756,-0.346739 2.618051,-0.476741 3.946957,-0.546279 1.153259,-0.060347 2.308341,-0.07616 3.463097,-0.089806 2.341163,-0.027666 4.727678,-0.040101 6.961766,0.660369 1.117044,0.350236 2.185878,0.880619 3.086723,1.628234 0.900846,0.747616 1.629186,1.718744 2.014246,2.824267 0.264004,0.757966 0.364329,1.576116 0.260388,2.371985 -0.103942,0.795869 -0.415139,1.567758 -0.916622,2.194436 -0.546687,0.683167 -1.327898,1.188625 -2.188664,1.345679 -0.860766,0.157053 -1.794123,-0.05174 -2.468723,-0.608965 -0.279061,-0.230506 -0.510428,-0.513593 -0.783437,-0.751237 -0.136504,-0.118822 -0.284015,-0.22651 -0.446636,-0.305924 -0.162621,-0.07941 -0.341134,-0.129998 -0.522102,-0.131631 -0.309234,-0.0028 -0.601772,0.135245 -0.868335,0.292019 -0.266562,0.156774 -0.523885,0.337117 -0.817549,0.434044 -0.314586,0.103833 -0.656648,0.105676 -0.982314,0.04495 -0.325665,-0.06073 -0.637107,-0.181914 -0.938143,-0.320201 -0.602072,-0.276572 -1.185706,-0.62874 -1.840579,-0.72936 -0.688609,-0.105803 -1.386471,0.07781 -2.051501,0.285445 -0.665029,0.207636 -1.336551,0.443517 -2.033239,0.44518 -0.634053,0.0015 -1.249975,-0.191332 -1.872624,-0.311056 -0.311324,-0.05986 -0.627815,-0.101718 -0.944677,-0.09147 -0.316862,0.01024 -0.635241,0.07413 -0.918335,0.216828 -0.213448,0.107595 -0.402565,0.256761 -0.59538,0.398037 -0.192815,0.141276 -0.393324,0.275772 -0.615483,0.363989 -0.222158,0.08822 -0.464792,0.127174 -0.702587,0.102882 -0.237795,-0.02429 -0.465222,-0.11151 -0.67689,-0.222565 -0.322505,-0.169208 -0.620068,-0.38586 -0.880139,-0.640819 z"
       id="path10"
       inkscape:path-effect="#path-effect10"
       inkscape:original-d="m 46.610637,19.451431 c -0.833731,-0.607029 5.811873,-6.787225 8.277739,-9.405306 2.465869,-2.6180807 0.287026,-0.8268342 3.463097,-0.089806 3.153684,0.731834 8.744468,2.677446 12.062735,5.11287 3.318266,2.435425 0.652808,3.68358 -0.656234,4.566421 -1.309039,0.882841 -3.865876,1.223799 -4.657387,0.736714 -0.791514,-0.487085 -0.930218,-1.432335 -1.752175,-1.188792 -0.821955,0.243542 -0.529057,1.060934 -1.685884,0.726063 -1.156824,-0.334871 -2.51288,-1.248149 -3.761036,-1.004612 -1.248153,0.243543 -2.775698,1.035055 -4.08474,0.730625 -1.309039,-0.304428 -3.248552,-0.398798 -3.735636,-0.185701 -0.487085,0.2131 -1.610534,1.355728 -2.59034,0.642343 z"
       sodipodi:nodetypes="sssssssssssss"
       transform="matrix(0.84641113,0,0,1.0169425,-24.952977,0.21155191)" /><path
       style="fill:#f2d4ee;fill-opacity:1;stroke-width:0.264583"
       d="m 18.695603,12.560604 c -0.09675,-0.06931 -0.221317,-0.09259 -0.339829,-0.08162 -0.118513,0.01097 -0.231975,0.05386 -0.338519,0.106909 -0.156008,0.07767 -0.302677,0.17991 -0.410533,0.3168 -0.107856,0.13689 -0.17432,0.311114 -0.160571,0.484846 0.01184,0.149587 0.0837,0.292904 0.193901,0.394751 0.110197,0.101846 0.257247,0.161962 0.407064,0.170399 0.149817,0.0084 0.301457,-0.03416 0.427176,-0.116076 0.12572,-0.08192 0.225316,-0.20233 0.28589,-0.339615 0.04968,-0.112587 0.07533,-0.234393 0.09241,-0.356262 0.01707,-0.121869 0.02965,-0.248507 -0.0052,-0.366541 -0.02517,-0.08534 -0.0795,-0.161779 -0.151829,-0.213592 z"
       id="path11"
       inkscape:path-effect="#path-effect11"
       inkscape:original-d="m 18.695603,12.560604 c -0.194239,-0.273248 -0.430795,0.111392 -0.678348,0.02529 -0.247553,-0.0861 -0.409567,0.521856 -0.571104,0.801646 -0.161537,0.279791 0.915705,-0.0628 1.314031,0.109459 0.398326,0.172263 0.268653,-0.467616 0.08725,-0.722803 z"
       transform="matrix(1.4886503,0,0,1.2093922,-8.5632366,-2.4286427)"
       sodipodi:nodetypes="ssssss" /><path
       style="fill:#f2d4ee;fill-opacity:1.0;stroke-width:0.264583"
       d="m 16.919682,14.465682 c -0.102634,0.02107 -0.198766,0.07282 -0.272852,0.146911 -0.07409,0.07409 -0.125846,0.170219 -0.146911,0.272853 -0.03057,0.14893 0.0056,0.310276 0.09683,0.431904 0.09122,0.121627 0.235985,0.201528 0.387516,0.213885 0.153397,0.01251 0.311127,-0.0445 0.421083,-0.152186 0.109956,-0.107688 0.170235,-0.264196 0.160925,-0.417821 -0.0093,-0.153624 -0.08805,-0.301707 -0.210207,-0.395328 -0.122157,-0.09362 -0.285616,-0.131161 -0.43638,-0.100218 z"
       id="path12"
       inkscape:path-effect="#path-effect12"
       inkscape:original-d="m 16.919682,14.465682 c -0.107631,-0.204499 -0.279842,0.269079 -0.419763,0.419764 -0.139921,0.150684 0.301369,0.591974 0.484342,0.645789 0.182974,0.05382 -0.0861,-0.861052 -0.06458,-1.065553 z"
       sodipodi:nodetypes="cssc" /></g></svg>
