<?xml version="1.0" encoding="UTF-8" standalone="no"?>
<!-- Created with Inkscape (http://www.inkscape.org/) -->

<svg
   width="210mm"
   height="297mm"
   viewBox="0 0 210 297"
   version="1.1"
   id="svg1"
   xml:space="preserve"
   inkscape:version="1.3.2 (091e20e, 2023-11-25, custom)"
   xmlns:inkscape="http://www.inkscape.org/namespaces/inkscape"
   xmlns:sodipodi="http://sodipodi.sourceforge.net/DTD/sodipodi-0.dtd"
   xmlns="http://www.w3.org/2000/svg"
   xmlns:svg="http://www.w3.org/2000/svg"><sodipodi:namedview
     id="namedview1"
     pagecolor="#ffffff"
     bordercolor="#999999"
     borderopacity="1"
     inkscape:showpageshadow="2"
     inkscape:pageopacity="0"
     inkscape:pagecheckerboard="0"
     inkscape:deskcolor="#d1d1d1"
     inkscape:document-units="mm"
     inkscape:zoom="4.0970529"
     inkscape:cx="65.168795"
     inkscape:cy="83.474637"
     inkscape:window-width="958"
     inkscape:window-height="1000"
     inkscape:window-x="-7"
     inkscape:window-y="0"
     inkscape:window-maximized="0"
     inkscape:current-layer="layer1" /><defs
     id="defs1"><inkscape:path-effect
       effect="spiro"
       id="path-effect12"
       is_visible="true"
       lpeversion="1" /><inkscape:path-effect
       effect="spiro"
       id="path-effect11"
       is_visible="true"
       lpeversion="1" /><inkscape:path-effect
       effect="spiro"
       id="path-effect10"
       is_visible="true"
       lpeversion="1" /></defs><g
     inkscape:label="Layer 1"
     inkscape:groupmode="layer"
     id="layer1"><path
       style="fill:#94b3e3;fill-opacity:1;stroke-width:0.264583"
       d="m 17.1347,20.051459 0.823381,1.40459 0.742658,1.03326 1.000974,0.98483 1.19471,1.01712 -0.06458,-0.72651 0.09687,-0.33904 0.548921,0.50049 h 0.145303 l 0.322895,-0.50049 0.645789,0.82338 0.09687,-0.0162 0.629645,-1.25929 0.452053,0.96868 0.129158,0.0969 0.145302,-0.0323 0.274461,-0.37132 0.435908,-0.50049 0.145302,0.0969 0.113014,0.35518 0.355184,0.3229 0.823381,-0.77495 0.661934,0.87182 0.30675,-0.24217 0.371329,-0.40362 0.177592,0.7588 0.08072,0.30675 0.177592,-0.0161 0.774947,-0.6135 0.742658,-0.72651 0.984828,-1.11399 0.500489,-0.88796 -0.01614,-0.29061 -0.129159,-0.30675 -0.516631,-0.4359 -0.6135,0.0323 -0.807237,-0.37133 -0.726513,-0.35519 -1.356158,0.14531 -0.500487,-0.0162 -0.387473,-0.0646 -0.742658,-0.25832 -0.497293,-0.22686 -0.353898,-0.18266 -0.102744,-0.0799 -0.616467,0.10274 -0.490891,0.14841 -0.536554,0.15983 -0.559386,0.0571 -0.513723,0.0114 -0.54797,-0.137 -0.547971,-0.13699 -0.684963,-0.29682 -0.273985,0.0342 -0.365314,0.26257 -0.513722,0.30824 -0.730627,0.25115 -0.285402,0.0685 -0.353897,0.30823 z"
       id="path1" /></g></svg>
