<?xml version="1.0" encoding="UTF-8" standalone="no"?>
<!-- Created with Inkscape (http://www.inkscape.org/) -->

<svg
   width="210mm"
   height="297mm"
   viewBox="0 0 210 297"
   version="1.1"
   id="svg1"
   xml:space="preserve"
   inkscape:version="1.3.2 (091e20e, 2023-11-25, custom)"
   sodipodi:docname="Jellyfish.svg"
   xmlns:inkscape="http://www.inkscape.org/namespaces/inkscape"
   xmlns:sodipodi="http://sodipodi.sourceforge.net/DTD/sodipodi-0.dtd"
   xmlns="http://www.w3.org/2000/svg"
   xmlns:svg="http://www.w3.org/2000/svg"><sodipodi:namedview
     id="namedview1"
     pagecolor="#ffffff"
     bordercolor="#999999"
     borderopacity="1"
     inkscape:showpageshadow="2"
     inkscape:pageopacity="0"
     inkscape:pagecheckerboard="0"
     inkscape:deskcolor="#d1d1d1"
     inkscape:document-units="mm"
     inkscape:zoom="2.8970539"
     inkscape:cx="97.858034"
     inkscape:cy="107.00526"
     inkscape:window-width="958"
     inkscape:window-height="1000"
     inkscape:window-x="0"
     inkscape:window-y="0"
     inkscape:window-maximized="0"
     inkscape:current-layer="layer1" /><defs
     id="defs1"><inkscape:path-effect
       effect="spiro"
       id="path-effect12"
       is_visible="true"
       lpeversion="1" /><inkscape:path-effect
       effect="spiro"
       id="path-effect11"
       is_visible="true"
       lpeversion="1" /><inkscape:path-effect
       effect="spiro"
       id="path-effect10"
       is_visible="true"
       lpeversion="1" /></defs><g
     inkscape:label="Layer 1"
     inkscape:groupmode="layer"
     id="layer1"><path
       style="fill:#dba688;stroke-width:0.264583"
       d="m 21.963886,20.442095 -0.161447,0.121083 -0.201809,0.274461 -0.137231,0.282535 -0.08072,0.201808 -0.05651,0.30675 -0.02422,0.419762 -0.0081,0.443981 0.07265,0.355185 0.09687,0.298677 0.209882,0.379402 0.13723,0.217953 -0.07265,0.702297 -0.104941,0.30675 -0.217954,0.330967 -0.153375,0.250243 -0.03229,1.267362 -0.06458,0.879888 -0.153375,0.871815 -0.0888,0.30675 0.01614,0.6135 0.03229,0.419762 0.09687,0.411691 0.314823,0.556993 0.145302,0.226029 0.0081,0.266387 -0.121086,0.395544 -0.129158,0.330968 -0.879888,0.896032 -0.314822,0.411692 -0.09687,0.129159 0.01614,0.06458 0.0888,-0.03229 0.330967,-0.266388 0.734586,-0.411689 0.524704,-0.387474 0.250243,-0.443981 0.121086,-0.605428 -0.0081,-0.427834 -0.121085,-0.670007 -0.05651,-0.419764 -0.05651,-0.807236 0.0081,-0.661934 0.0081,-1.283507 0.03229,-0.758801 0.13723,-0.831454 0.02422,-0.2341 0.209882,-0.540848 0.113013,-0.605428 -0.177592,-0.831453 -0.09687,-0.637717 -0.02422,-0.718442 0.04036,-0.750729 -0.03229,-0.492416 z"
       id="path2" /></g></svg>
